<svg xmlns="http://www.w3.org/2000/svg" width="149.082" height="45" viewBox="0 0 149.082 45">
  <g id="button_App_Store" data-name="button App Store" transform="translate(-1231.918 -340)">
    <g id="Grupo_358" data-name="Grupo 358" transform="translate(-7)">
      <path id="Trazado_361" data-name="Trazado 361" d="M149.663,41.275a4.2,4.2,0,0,1-4.207,4.2H7.775a4.208,4.208,0,0,1-4.213-4.2V7.768A4.213,4.213,0,0,1,7.775,3.561h137.68a4.207,4.207,0,0,1,4.207,4.207V41.275Z" transform="translate(1235.356 338.061)" fill="none"/>
      <path id="Trazado_362" data-name="Trazado 362" d="M66.529,36.872a5.126,5.126,0,0,1,2.442-4.3,5.252,5.252,0,0,0-4.136-2.235c-1.74-.183-3.427,1.041-4.314,1.041-.9,0-2.269-1.023-3.74-.993a5.507,5.507,0,0,0-4.635,2.826c-2,3.469-.509,8.567,1.411,11.371.961,1.374,2.083,2.907,3.552,2.853,1.437-.058,1.974-.915,3.709-.915,1.719,0,2.223.915,3.721.881,1.543-.024,2.514-1.379,3.441-2.765a11.333,11.333,0,0,0,1.574-3.2A4.959,4.959,0,0,1,66.529,36.872ZM63.7,28.491a5.045,5.045,0,0,0,1.155-3.616,5.141,5.141,0,0,0-3.324,1.719,4.8,4.8,0,0,0-1.185,3.482A4.247,4.247,0,0,0,63.7,28.491Z" transform="translate(1212.07 327.205)" fill="#959495"/>
      <g id="Grupo_352" data-name="Grupo 352" transform="translate(1289.48 362.498)">
        <path id="Trazado_364" data-name="Trazado 364" d="M179.749,83.958H177.74l-1.1-3.457h-3.825l-1.048,3.457h-1.956L173.6,72.19h2.34Zm-3.441-4.907-1-3.073q-.158-.471-.594-2.217h-.035q-.175.751-.559,2.217l-.978,3.073Zm13.169.56a4.8,4.8,0,0,1-1.176,3.421,3.45,3.45,0,0,1-2.616,1.118,2.619,2.619,0,0,1-2.424-1.2V87.4h-1.886V78.261q0-1.36-.07-2.789h1.658l.105,1.345h.035a3.355,3.355,0,0,1,5.37-.333A4.691,4.691,0,0,1,189.477,79.611Zm-1.921.069A3.5,3.5,0,0,0,187,77.636a1.932,1.932,0,0,0-1.642-.837,1.961,1.961,0,0,0-1.266.462,2.145,2.145,0,0,0-.742,1.214,2.461,2.461,0,0,0-.088.574v1.416a2.27,2.27,0,0,0,.568,1.563,1.885,1.885,0,0,0,1.475.638,1.933,1.933,0,0,0,1.658-.821A3.611,3.611,0,0,0,187.556,79.68Zm11.683-.069a4.8,4.8,0,0,1-1.176,3.421,3.451,3.451,0,0,1-2.617,1.118,2.619,2.619,0,0,1-2.424-1.2V87.4h-1.886V78.261q0-1.36-.07-2.789h1.658l.105,1.345h.035a3.356,3.356,0,0,1,5.371-.333,4.7,4.7,0,0,1,1,3.127Zm-1.922.069a3.5,3.5,0,0,0-.56-2.044,1.929,1.929,0,0,0-1.64-.837,1.969,1.969,0,0,0-1.268.462,2.144,2.144,0,0,0-.741,1.214,2.519,2.519,0,0,0-.088.574v1.416a2.278,2.278,0,0,0,.567,1.563,1.889,1.889,0,0,0,1.477.638,1.931,1.931,0,0,0,1.658-.821A3.611,3.611,0,0,0,197.317,79.68Zm12.837.977a3.143,3.143,0,0,1-1.046,2.445,4.639,4.639,0,0,1-3.206,1.03,5.6,5.6,0,0,1-3.048-.733l.436-1.571a5.247,5.247,0,0,0,2.724.734,2.571,2.571,0,0,0,1.658-.48,1.568,1.568,0,0,0,.6-1.282,1.643,1.643,0,0,0-.49-1.205,4.543,4.543,0,0,0-1.624-.907q-3.091-1.153-3.092-3.371a2.976,2.976,0,0,1,1.091-2.374,4.317,4.317,0,0,1,2.891-.926,5.713,5.713,0,0,1,2.672.559l-.473,1.537a4.673,4.673,0,0,0-2.262-.541,2.3,2.3,0,0,0-1.56.489,1.4,1.4,0,0,0-.473,1.066,1.441,1.441,0,0,0,.542,1.152,6.108,6.108,0,0,0,1.711.907,5.8,5.8,0,0,1,2.235,1.431A2.982,2.982,0,0,1,210.154,80.657Zm6.251-3.77h-2.079v4.12q0,1.572,1.1,1.57a3.314,3.314,0,0,0,.838-.088l.052,1.432a4.274,4.274,0,0,1-1.467.209,2.26,2.26,0,0,1-1.747-.682,3.343,3.343,0,0,1-.629-2.288V76.884h-1.238V75.469h1.238V73.915l1.852-.559v2.113H216.4Zm9.36,2.758a4.654,4.654,0,0,1-1.118,3.213,3.986,3.986,0,0,1-3.108,1.292,3.8,3.8,0,0,1-2.978-1.238,4.513,4.513,0,0,1-1.109-3.125,4.616,4.616,0,0,1,1.144-3.229,3.965,3.965,0,0,1,3.083-1.257,3.879,3.879,0,0,1,3,1.24A4.454,4.454,0,0,1,225.765,79.645Zm-1.955.043a3.8,3.8,0,0,0-.505-2,1.867,1.867,0,0,0-1.695-1.011,1.894,1.894,0,0,0-1.729,1.011,3.862,3.862,0,0,0-.506,2.037,3.788,3.788,0,0,0,.506,2,1.934,1.934,0,0,0,3.408-.017A3.814,3.814,0,0,0,223.81,79.689ZM231.9,77.13a3.28,3.28,0,0,0-.594-.052,1.78,1.78,0,0,0-1.537.752,2.831,2.831,0,0,0-.471,1.676v4.452h-1.886V78.145q0-1.336-.055-2.671H229l.069,1.624h.052a2.911,2.911,0,0,1,.943-1.345,2.281,2.281,0,0,1,1.363-.455,3.029,3.029,0,0,1,.471.034l0,1.8Zm8.434,2.183a4.419,4.419,0,0,1-.069.855H234.6a2.461,2.461,0,0,0,.821,1.922,2.807,2.807,0,0,0,1.85.592,6.258,6.258,0,0,0,2.289-.4l.3,1.308a7.079,7.079,0,0,1-2.845.524,4.126,4.126,0,0,1-3.1-1.16,4.289,4.289,0,0,1-1.126-3.116,4.86,4.86,0,0,1,1.049-3.194,3.614,3.614,0,0,1,2.967-1.361,3.163,3.163,0,0,1,2.778,1.361A4.579,4.579,0,0,1,240.331,79.314Zm-1.8-.489a2.552,2.552,0,0,0-.366-1.449,1.647,1.647,0,0,0-1.5-.787,1.788,1.788,0,0,0-1.5.768,2.816,2.816,0,0,0-.558,1.466Z" transform="translate(-169.812 -72.016)" fill="#0c3866"/>
      </g>
      <text id="Download_on_the" data-name="Download on the" transform="translate(1289 347)" fill="#0c3866" font-size="10" font-family="Lato-Regular, Lato"><tspan x="0" y="10">Download on the</tspan></text>
      <g id="Rectángulo_179" data-name="Rectángulo 179" transform="translate(1240 340)" fill="none" stroke="#0c3866" stroke-width="1">
        <rect width="148" height="45" rx="22.5" stroke="none"/>
        <rect x="0.5" y="0.5" width="147" height="44" rx="22" fill="none"/>
      </g>
    </g>
  </g>
</svg>
