<svg xmlns="http://www.w3.org/2000/svg" xmlns:xlink="http://www.w3.org/1999/xlink" width="148" height="45" viewBox="0 0 148 45">
  <defs>
    <linearGradient id="linear-gradient" x1="5.219" y1="0.865" x2="-1.113" y2="6.933" gradientUnits="objectBoundingBox">
      <stop offset="0" stop-color="#40b8ff"/>
      <stop offset="0.007" stop-color="#40b9ff"/>
      <stop offset="0.26" stop-color="#40ceff"/>
      <stop offset="0.512" stop-color="#40ddff"/>
      <stop offset="0.76" stop-color="#40e7ff"/>
      <stop offset="1" stop-color="#40eaff"/>
    </linearGradient>
    <linearGradient id="linear-gradient-2" x1="0.849" y1="0.31" x2="0.361" y2="0.799" gradientUnits="objectBoundingBox">
      <stop offset="0" stop-color="#00a0ff"/>
      <stop offset="0.007" stop-color="#00a1ff"/>
      <stop offset="0.26" stop-color="#00beff"/>
      <stop offset="0.512" stop-color="#00d2ff"/>
      <stop offset="0.76" stop-color="#00dfff"/>
      <stop offset="1" stop-color="#00e3ff"/>
    </linearGradient>
    <linearGradient id="linear-gradient-3" x1="0.97" y1="0.436" x2="-1.177" y2="0.436" gradientUnits="objectBoundingBox">
      <stop offset="0" stop-color="#ffe000"/>
      <stop offset="0.409" stop-color="#ffbd00"/>
      <stop offset="0.775" stop-color="orange"/>
      <stop offset="1" stop-color="#ff9c00"/>
    </linearGradient>
    <linearGradient id="linear-gradient-4" x1="0.761" y1="0.213" x2="-0.443" y2="1.411" gradientUnits="objectBoundingBox">
      <stop offset="0" stop-color="#ff3a44"/>
      <stop offset="1" stop-color="#c31162"/>
    </linearGradient>
    <linearGradient id="linear-gradient-5" x1="-0.17" y1="-0.275" x2="0.367" y2="0.26" gradientUnits="objectBoundingBox">
      <stop offset="0" stop-color="#32a071"/>
      <stop offset="0.068" stop-color="#2da771"/>
      <stop offset="0.476" stop-color="#15cf74"/>
      <stop offset="0.801" stop-color="#06e775"/>
      <stop offset="1" stop-color="#00f076"/>
    </linearGradient>
    <linearGradient id="linear-gradient-6" x1="0.624" y1="0.038" x2="-0.364" y2="1.027" gradientUnits="objectBoundingBox">
      <stop offset="0" stop-color="#cc2e36"/>
      <stop offset="1" stop-color="#9c0e4e"/>
    </linearGradient>
    <linearGradient id="linear-gradient-7" x1="5.233" y1="-7.998" x2="-1.121" y2="-1.634" gradientUnits="objectBoundingBox">
      <stop offset="0" stop-color="#008de0"/>
      <stop offset="0.007" stop-color="#008de0"/>
      <stop offset="0.26" stop-color="#00a7e0"/>
      <stop offset="0.512" stop-color="#00b8e0"/>
      <stop offset="0.76" stop-color="#00c4e0"/>
      <stop offset="1" stop-color="#00c7e0"/>
    </linearGradient>
    <linearGradient id="linear-gradient-8" x1="0.943" y1="-0.195" x2="-2.414" y2="-0.195" gradientUnits="objectBoundingBox">
      <stop offset="0" stop-color="#e0c500"/>
      <stop offset="0.409" stop-color="#e0a600"/>
      <stop offset="0.775" stop-color="#e09100"/>
      <stop offset="1" stop-color="#e08900"/>
    </linearGradient>
    <linearGradient id="linear-gradient-9" x1="0.944" y1="0.999" x2="-2.414" y2="0.999" gradientUnits="objectBoundingBox">
      <stop offset="0" stop-color="#ffe840"/>
      <stop offset="0.409" stop-color="#ffce40"/>
      <stop offset="0.775" stop-color="#ffbc40"/>
      <stop offset="1" stop-color="#ffb540"/>
    </linearGradient>
    <linearGradient id="linear-gradient-10" x1="-0.137" y1="-0.184" x2="0.304" y2="0.257" gradientUnits="objectBoundingBox">
      <stop offset="0" stop-color="#65b895"/>
      <stop offset="0.068" stop-color="#62bd95"/>
      <stop offset="0.476" stop-color="#50db97"/>
      <stop offset="0.801" stop-color="#44ed98"/>
      <stop offset="1" stop-color="#40f498"/>
    </linearGradient>
  </defs>
  <g id="button_Google_Play" data-name="button Google Play" transform="translate(-1073 -340)">
    <path id="Trazado_357" data-name="Trazado 357" d="M.115-33.054v-.168c0-.061,0-.12,0-.177v0a.008.008,0,0,1,0,0v-.006a2.1,2.1,0,0,1,.5-1.348l.08.081a2.124,2.124,0,0,0-.588,1.624" transform="translate(1083.822 383.684)" fill="url(#linear-gradient)"/>
    <g id="Grupo_357" data-name="Grupo 357">
      <path id="Trazado_347" data-name="Trazado 347" d="M969.988,176.146h1.65V165.077h-1.65Zm14.858-7.082-1.891,4.8H982.9l-1.963-4.8h-1.777l2.943,6.708-1.678,3.731h1.721l4.535-10.439Zm-9.355,5.825c-.541,0-1.294-.271-1.294-.94,0-.854.939-1.182,1.749-1.182a2.932,2.932,0,0,1,1.507.37,2,2,0,0,1-1.962,1.751Zm.2-6.067a3.1,3.1,0,0,0-2.943,1.695l1.464.612a1.563,1.563,0,0,1,1.507-.812,1.589,1.589,0,0,1,1.734,1.424v.114a3.643,3.643,0,0,0-1.72-.427c-1.578,0-3.185.868-3.185,2.492a2.555,2.555,0,0,0,2.744,2.435,2.327,2.327,0,0,0,2.1-1.082h.057v.854h1.592v-4.244C979.045,169.919,977.581,168.822,975.69,168.822Zm-10.194,1.59H963.15v-3.794H965.5a1.9,1.9,0,1,1,0,3.794Zm-.042-5.335H961.5v11.069h1.649v-4.194h2.3a3.443,3.443,0,1,0,0-6.875ZM943.9,174.891a2.291,2.291,0,0,1,0-4.565,2.3,2.3,0,0,1,0,4.565Zm1.894-5.207h-.057a2.6,2.6,0,0,0-1.98-.842,3.77,3.77,0,0,0,0,7.532,2.563,2.563,0,0,0,1.98-.856h.057v.542c0,1.441-.769,2.211-2.008,2.211a2.082,2.082,0,0,1-1.895-1.341l-1.438.6a3.583,3.583,0,0,0,3.333,2.225c1.937,0,3.575-1.141,3.575-3.923v-6.762h-1.567Zm2.706,6.462h1.652v-11.07H948.5Zm4.088-3.652a2.064,2.064,0,0,1,1.965-2.2,1.454,1.454,0,0,1,1.4.8Zm5.127-1.255a3.5,3.5,0,0,0-3.219-2.4,3.576,3.576,0,0,0-3.546,3.766,3.682,3.682,0,0,0,3.731,3.766,3.739,3.739,0,0,0,3.134-1.669l-1.282-.856a2.146,2.146,0,0,1-1.852,1.041,1.913,1.913,0,0,1-1.823-1.141l5.027-2.083ZM917.661,170v1.6h3.817a3.336,3.336,0,0,1-.869,2.011,3.9,3.9,0,0,1-2.948,1.17,4.251,4.251,0,0,1,0-8.5,4.064,4.064,0,0,1,2.877,1.141l1.125-1.127a5.558,5.558,0,0,0-4-1.612,5.849,5.849,0,1,0,0,11.7A5.172,5.172,0,0,0,923.116,171a5.184,5.184,0,0,0-.086-1Zm9.794,4.893a2.289,2.289,0,1,1,2.122-2.282A2.177,2.177,0,0,1,927.455,174.891Zm0-6.048a3.766,3.766,0,1,0,3.774,3.766A3.709,3.709,0,0,0,927.455,168.842Zm8.233,6.048a2.289,2.289,0,1,1,2.122-2.282A2.177,2.177,0,0,1,935.688,174.891Zm0-6.048a3.766,3.766,0,1,0,3.774,3.766A3.709,3.709,0,0,0,935.688,168.842Z" transform="translate(212.545 197)" fill="#0c3866"/>
      <g id="Grupo_356" data-name="Grupo 356" transform="translate(1086 346.582)">
        <path id="Trazado_338" data-name="Trazado 338" d="M114.923,35.418H4.42A4.437,4.437,0,0,1,0,30.991V4.427A4.437,4.437,0,0,1,4.42,0h110.5a4.437,4.437,0,0,1,4.42,4.427V30.991a4.437,4.437,0,0,1-4.42,4.427" transform="translate(0 0)" fill="none"/>
        <path id="Trazado_348" data-name="Trazado 348" d="M222.015,162.421a1.712,1.712,0,0,0-.474,1.309v19.324a1.775,1.775,0,0,0,.409,1.244l.066.063h0a1.135,1.135,0,0,0,.781.288,2.034,2.034,0,0,0,.99-.3l12.832-7.3,4.408-2.509a1.65,1.65,0,0,0,.927-1.148v0a1.649,1.649,0,0,0-.927-1.149l-4.408-2.508-12.831-7.3a2.038,2.038,0,0,0-.992-.3,1.137,1.137,0,0,0-.78.287Z" transform="translate(-212.725 -155.682)" fill="#00c1ff"/>
        <g id="Grupo_355" data-name="Grupo 355" transform="translate(8.816 6.452)">
          <path id="Trazado_349" data-name="Trazado 349" d="M.59-529.626l-.066-.063a1.775,1.775,0,0,1-.409-1.244v-19.324a1.712,1.712,0,0,1,.474-1.309L11.542-540.6.59-529.626" transform="translate(-0.115 551.853)" fill="url(#linear-gradient-2)"/>
          <path id="Trazado_350" data-name="Trazado 350" d="M4.337-177.252.686-180.91l3.651-3.657,4.408,2.508a1.649,1.649,0,0,1,.927,1.149v0a1.65,1.65,0,0,1-.927,1.148l-4.408,2.509" transform="translate(10.741 192.167)" fill="url(#linear-gradient-3)"/>
          <path id="Trazado_351" data-name="Trazado 351" d="M1.221-271.759a1.136,1.136,0,0,1-.781-.288h0l10.952-10.97,3.651,3.658-12.832,7.3a2.033,2.033,0,0,1-.99.3" transform="translate(0.035 294.275)" fill="url(#linear-gradient-4)"/>
          <path id="Trazado_352" data-name="Trazado 352" d="M11.143-272.347.19-283.318a1.137,1.137,0,0,1,.78-.287,2.037,2.037,0,0,1,.992.3L14.794-276l-3.651,3.657" transform="translate(0.284 283.605)" fill="url(#linear-gradient-5)"/>
        </g>
        <path id="Trazado_353" data-name="Trazado 353" d="M1.637-187.365a1.138,1.138,0,0,1-.781-.288h0l0,0L.8-187.711l-.006-.006.066-.066a1.135,1.135,0,0,0,.781.288,2.033,2.033,0,0,0,.99-.3l12.832-7.3.082.082-.083.047-12.831,7.3a2.111,2.111,0,0,1-.909.3l-.081,0" transform="translate(8.435 216.462)" fill="url(#linear-gradient-6)"/>
        <path id="Trazado_354" data-name="Trazado 354" d="M.524-33.932a1.774,1.774,0,0,1-.409-1.244v-.129a1.775,1.775,0,0,0,.409,1.244L.59-34l-.066.066" transform="translate(8.701 62.677)" fill="url(#linear-gradient-7)"/>
        <path id="Trazado_355" data-name="Trazado 355" d="M.724-90.388.642-90.47,5.05-92.979a1.65,1.65,0,0,0,.927-1.148,1.1,1.1,0,0,1-.1.457,1.9,1.9,0,0,1-.824.821L.724-90.388" transform="translate(23.252 111.838)" fill="url(#linear-gradient-8)"/>
        <path id="Trazado_356" data-name="Trazado 356" d="M5.968-90.945a1.649,1.649,0,0,0-.927-1.149L.633-94.6l.082-.082h0l4.325,2.462a1.555,1.555,0,0,1,.927,1.278" transform="translate(23.261 108.654)" fill="url(#linear-gradient-9)"/>
        <path id="Trazado_358" data-name="Trazado 358" d="M15.458-187.173l-12.831-7.3a2.037,2.037,0,0,0-.992-.3,1.137,1.137,0,0,0-.78.287l-.065-.065q.03-.032.063-.062l0,0a1.136,1.136,0,0,1,.773-.288h.007a2.036,2.036,0,0,1,.992.3l12.914,7.349h0l-.082.082" transform="translate(8.436 201.226)" fill="url(#linear-gradient-10)"/>
      </g>
      <text id="Get_it_on" data-name="Get it on" transform="translate(1124 347)" fill="#0c3866" font-size="10" font-family="Lato-Regular, Lato"><tspan x="0" y="10">Get it on</tspan></text>
    </g>
    <g id="Rectángulo_178" data-name="Rectángulo 178" transform="translate(1073 340)" fill="none" stroke="#0c3866" stroke-width="1">
      <rect width="148" height="45" rx="22.5" stroke="none"/>
      <rect x="0.5" y="0.5" width="147" height="44" rx="22" fill="none"/>
    </g>
  </g>
</svg>
